<svg width="404" height="490" viewBox="0 0 404 490" fill="none" xmlns="http://www.w3.org/2000/svg">
<path d="M9.8002 311.3C-2.9998 298.5 -2.9998 277.9 9.8002 265.1C16.2002 258.7 24.5002 255.5 32.9002 255.5C41.3002 255.5 49.6002 258.7 56.0002 265.1L169.4 378.5V32.7C169.4 14.7 184 0 202.1 0C220.1 0 234.8 14.6 234.8 32.7V378.5L348 265.1C360.8 252.3 381.4 252.3 394.2 265.1C407 277.9 407 298.5 394.2 311.3L225.1 480.4C219 486.5 210.7 490 202 490C193.3 490 185 486.6 178.9 480.4L9.8002 311.3Z" fill="white"/>
</svg>
