<svg width="91" height="92" viewBox="0 0 91 92" fill="none" xmlns="http://www.w3.org/2000/svg">
<path d="M45.4865 86.993C45.6381 86.8811 45.7505 86.8219 45.833 86.734C47.9929 84.4428 50.1975 82.1916 52.2916 79.8412C53.6848 78.2784 54.8 76.5026 55.5608 74.5258C56.7665 71.3923 56.5583 68.3474 54.9603 65.411C53.9488 63.5526 53.2539 61.615 53.0544 59.4923C52.7039 55.7756 53.6915 52.4557 55.9046 49.484C56.2757 48.986 56.688 48.5079 57.1382 48.0811C57.8624 47.3959 58.8307 47.4006 59.4944 48.0318C60.1368 48.6431 60.1747 49.6638 59.5768 50.4076C59.4598 50.5527 59.3215 50.6812 59.1958 50.8197C56.0749 54.2675 55.4544 59.1594 57.6669 63.2637C58.6698 65.124 59.3833 67.0497 59.6227 69.169C59.9339 71.9303 59.36 74.5051 58.1936 76.9747C56.968 79.5682 55.2396 81.8241 53.2958 83.9022C51.2083 86.1334 49.0457 88.2954 46.8963 90.468C45.9793 91.3949 45.0802 91.4315 44.1957 90.5486C41.3508 87.7055 38.4154 84.9455 35.903 81.7861C34.7153 80.2933 33.6446 78.7239 32.8246 76.9934C32.6916 76.7117 32.556 76.4281 32.4629 76.1318C32.2135 75.3374 32.5586 74.5324 33.2861 74.1549C34.009 73.7793 34.8855 73.9638 35.3869 74.609C35.5 74.7548 35.5898 74.9239 35.6656 75.093C36.6744 77.3396 38.1148 79.3005 39.7594 81.1016C41.5044 83.0126 43.3365 84.8437 45.1327 86.7074C45.2178 86.7959 45.3236 86.8632 45.4865 86.993Z" fill="white" fill-opacity="0.88"/>
<path d="M81.338 66.28C81.1352 65.4817 80.9616 64.7606 80.7687 64.0448C79.974 61.0931 79.198 58.1308 77.9072 55.3482C77.3585 54.165 76.7328 52.9964 75.986 51.9311C73.832 48.8589 70.8381 47.3288 67.0774 47.2882C60.9839 47.2222 55.689 43.385 53.7319 37.6268C53.5836 37.19 53.4759 36.7212 53.4546 36.2625C53.4187 35.4887 53.9334 34.8469 54.635 34.6651C55.4044 34.466 56.1792 34.7836 56.5496 35.4801C56.6799 35.7245 56.7438 36.0041 56.8362 36.2684C58.2646 40.3487 61.0697 42.8769 65.3151 43.7212C66.2548 43.9083 67.2357 43.8897 68.1973 43.9623C72.7932 44.3072 76.3457 46.4565 78.9499 50.2239C80.7262 52.7934 81.8434 55.6731 82.7352 58.6375C83.5432 61.3235 84.2541 64.0388 84.9809 66.7488C85.3547 68.1417 84.9171 68.8948 83.5239 69.2504C80.2075 70.0966 76.8984 70.9822 73.5567 71.7166C71.8629 72.0889 70.1092 72.2214 68.3742 72.3559C67.4518 72.4271 66.5075 72.3099 65.5805 72.2074C64.6122 72.1002 64.0423 71.3391 64.1154 70.3723C64.1833 69.4734 64.835 68.8968 65.8285 68.8955C66.6073 68.8948 67.386 68.9507 68.1647 68.9474C71.118 68.9347 73.9663 68.2449 76.8126 67.5578C78.0229 67.2655 79.2219 66.9266 80.4236 66.599C80.7129 66.5197 80.9915 66.4019 81.338 66.28Z" fill="white" fill-opacity="0.88"/>
<path d="M9.68729 66.3452C11.008 66.7048 12.231 67.0537 13.4619 67.37C15.9052 67.9979 18.3591 68.5918 20.8748 68.8422C22.7708 69.0306 24.6674 69.0566 26.5408 68.5851C29.1317 67.9333 31.1693 66.4884 32.7021 64.3144C32.9894 63.9069 33.2295 63.4668 33.5041 63.0507C36.0259 59.2247 39.5411 57.0328 44.1084 56.5167C45.5868 56.3496 47.0285 56.4881 48.4716 56.7558C48.8061 56.8177 49.1473 56.8996 49.4565 57.0368C50.204 57.3677 50.5797 58.1913 50.3862 58.9837C50.206 59.7201 49.515 60.2508 48.7283 60.2348C48.5135 60.2308 48.298 60.1782 48.0859 60.1323C43.1914 59.0689 38.7424 60.9459 36.1442 65.236C34.0149 68.7516 31.0136 71.0501 26.9983 71.9616C24.6308 72.499 22.2394 72.4417 19.8454 72.1314C15.5674 71.5768 11.4516 70.3257 7.30454 69.211C6.17269 68.9068 5.74309 68.187 5.97252 67.0144C6.1155 66.2813 6.33695 65.5636 6.52847 64.8404C7.39831 61.5552 8.2462 58.2632 9.51372 55.0998C10.2353 53.2987 11.0965 51.5722 12.2203 49.9841C12.5947 49.4548 13.0283 49.0466 13.7359 49.0366C14.9921 49.0187 15.8081 50.1812 15.3419 51.3525C15.296 51.4676 15.2375 51.5815 15.165 51.6814C13.2312 54.3521 12.1538 57.4083 11.2268 60.5258C10.7114 62.2583 10.2685 64.0121 9.79569 65.7573C9.75645 65.9025 9.73983 66.0543 9.68729 66.3452Z" fill="white" fill-opacity="0.88"/>
<path d="M81.3042 24.9265C81.0541 24.8253 80.8373 24.7107 80.6066 24.6475C77.5162 23.7965 74.4246 22.9442 71.2458 22.4808C69.2042 22.1832 67.154 22.052 65.1104 22.4535C61.9369 23.0767 59.511 24.7933 57.8571 27.5705C56.688 29.5334 55.2043 31.1941 53.2824 32.4285C49.8616 34.6251 46.1541 35.2577 42.19 34.3628C42.0084 34.3215 41.8276 34.2676 41.6553 34.197C40.8507 33.8674 40.4144 33.0378 40.6119 32.2281C40.8167 31.3871 41.6533 30.8292 42.5331 30.965C43.1782 31.0642 43.8153 31.2447 44.463 31.2919C48.9891 31.6222 52.4711 29.8257 54.8379 25.9752C57.0451 22.3836 60.1141 20.0505 64.2479 19.1782C66.3413 18.7368 68.4674 18.7634 70.5748 18.9905C75.0823 19.4752 79.4042 20.8169 83.7581 21.9961C84.8407 22.2891 85.3129 23.0708 85.0422 24.1255C83.917 28.5014 82.9148 32.9219 81.0588 37.0648C80.3997 38.5356 79.5133 39.906 78.7 41.3042C78.3468 41.9121 77.7743 42.2437 77.0587 42.1758C75.8298 42.0586 75.1541 40.7542 75.7533 39.6616C75.992 39.2261 76.3112 38.8346 76.5739 38.4111C77.8494 36.3557 78.7179 34.1178 79.4235 31.8193C80.0453 29.7944 80.582 27.743 81.1512 25.7015C81.2157 25.4651 81.2463 25.2208 81.3042 24.9265Z" fill="white" fill-opacity="0.88"/>
<path d="M9.65814 24.9064C9.97668 26.1196 10.2673 27.2608 10.5772 28.3961C11.2588 30.8937 11.9937 33.3746 13.0431 35.7483C13.855 37.5841 14.826 39.3253 16.2617 40.7575C18.2475 42.7384 20.6395 43.8124 23.4519 43.8636C26.9239 43.9269 30.0867 44.8657 32.8033 47.0956C35.0065 48.9041 36.54 51.1746 37.3786 53.9052C37.469 54.2002 37.5389 54.5118 37.5528 54.8188C37.5921 55.683 37.1319 56.3176 36.3751 56.5014C35.4913 56.7151 34.7405 56.3629 34.3747 55.5406C34.249 55.2569 34.1706 54.9526 34.0695 54.6583C32.5519 50.2464 28.5884 47.3713 23.934 47.2954C18.824 47.2122 14.8286 45.0475 11.9558 40.8167C10.3458 38.4457 9.27376 35.8156 8.44515 33.095C7.57332 30.2338 6.80722 27.3394 6.02583 24.4516C5.65807 23.092 6.09432 22.2817 7.39044 21.9521C10.8585 21.0691 14.3265 20.1856 17.8132 19.3819C20.1321 18.8479 22.5049 18.7846 24.8777 18.9118C25.1849 18.9285 25.5014 18.9751 25.7907 19.0756C26.6333 19.3686 27.0237 20.1003 26.8614 21.0092C26.7284 21.7523 26.0541 22.4155 25.2767 22.3329C20.3123 21.8082 15.6592 23.2964 10.9582 24.4869C10.5453 24.5908 10.1456 24.7473 9.65814 24.9064Z" fill="white" fill-opacity="0.88"/>
<path d="M45.4445 4.13878C44.2415 5.35861 43.0924 6.49853 41.9718 7.66509C40.1989 9.51014 38.4792 11.4025 37.07 13.5518C36.1057 15.0227 35.3057 16.5741 34.9287 18.3019C34.3681 20.8701 34.7578 23.3111 35.9641 25.6482C36.5054 26.6969 37.0554 27.7696 37.3826 28.8955C38.8981 34.1097 37.7676 38.7493 34.1759 42.8003C33.7715 43.2564 33.3246 43.6053 32.6603 43.5927C32.0019 43.5807 31.5145 43.3097 31.2086 42.7437C30.906 42.1838 30.916 41.5992 31.2451 41.0505C31.3875 40.8128 31.5916 40.6104 31.7785 40.402C34.9739 36.8444 35.5611 32.0177 33.2788 27.7995C32.5319 26.4192 31.9135 24.9983 31.6003 23.4556C30.9499 20.2562 31.3821 17.1953 32.7847 14.2596C33.8148 12.1029 35.1435 10.132 36.7528 8.3862C39.1821 5.75079 41.7005 3.19661 44.2083 0.634448C45.0455 -0.220495 45.9859 -0.210508 46.8344 0.659084C49.3375 3.22525 51.85 5.78475 54.2799 8.41949C55.8474 10.1187 57.1495 12.0324 58.1536 14.1311C58.3013 14.4401 58.4536 14.7517 58.554 15.0779C58.7827 15.8257 58.4502 16.62 57.7792 17.0029C57.1441 17.3651 56.2178 17.2306 55.719 16.6839C55.5747 16.5255 55.4523 16.335 55.3652 16.1393C54.3225 13.8028 52.8116 11.78 51.1005 9.91231C49.4373 8.09656 47.693 6.35538 45.9805 4.5849C45.8509 4.45373 45.6972 4.34852 45.4445 4.13878Z" fill="white" fill-opacity="0.88"/>
<path d="M45.4611 28.795C41.1412 28.9055 37.0054 25.1681 37.2202 20.1403C37.2661 19.0677 37.5255 18.0296 38.0169 17.0835C38.5469 16.0627 39.0776 15.014 39.7872 14.1205C41.1631 12.3899 42.6335 10.732 44.1257 9.09866C45.0229 8.11654 45.9519 8.14184 46.8809 9.08401C48.6126 10.8398 50.2738 12.6589 51.663 14.7077C52.5076 15.9535 53.2258 17.2679 53.5729 18.7461C54.8039 23.9823 50.6189 28.9375 45.4611 28.795ZM45.4983 12.5431C43.7001 14.5186 41.9751 16.3663 40.9995 18.7514C40.7574 19.344 40.6018 20.0198 40.6058 20.6564C40.6185 22.6499 41.9019 24.4197 43.7686 25.1082C45.7145 25.826 47.4548 25.4212 48.9431 24.0062C50.1867 22.823 50.9342 20.7909 49.9945 18.6675C48.9671 16.3457 47.3005 14.4987 45.4983 12.5431Z" fill="white" fill-opacity="0.88"/>
<path d="M23.3209 66.4418C20.3503 66.3739 17.7986 65.8252 15.2589 65.204C14.8972 65.1154 14.5261 65.0395 14.183 64.8997C13.3776 64.5714 12.9474 63.7724 13.1775 62.9254C13.9309 60.1575 14.7642 57.4136 16.1461 54.8807C16.5318 54.1736 16.978 53.4831 17.4914 52.8639C19.6407 50.2717 22.4265 49.3116 25.6737 50.058C28.919 50.8038 31.0504 52.8958 31.861 56.1405C33.094 61.0737 29.6838 65.7227 25.1151 66.2633C24.4069 66.3479 23.6953 66.4051 23.3209 66.4418ZM16.9361 62.1178C17.8412 62.3115 18.6213 62.5046 19.4113 62.6431C21.1317 62.9454 22.8554 63.1771 24.6117 62.9348C27.1807 62.5799 28.8838 60.2561 28.7315 57.8351C28.5945 55.6558 27.0962 53.9026 25.0566 53.3679C23.0523 52.8426 21.0911 53.5777 19.8269 55.3748C18.4251 57.367 17.6902 59.6495 16.9361 62.1178Z" fill="white" fill-opacity="0.88"/>
<path d="M24.0775 41.3635C21.1521 41.2935 19.0114 40.2761 17.3808 38.2107C16.4259 37.0015 15.691 35.6578 15.1623 34.2236C14.4627 32.3273 13.8416 30.3997 13.2451 28.4674C12.8886 27.3135 13.3541 26.5058 14.5073 26.1876C17.0902 25.4758 19.707 24.8985 22.3884 24.7826C23.5249 24.734 24.7006 24.8272 25.8112 25.0716C29.5586 25.8946 32.1089 29.1952 32.1042 33.0717C32.0996 36.905 29.4788 40.2635 25.8006 41.1118C25.1382 41.2642 24.4519 41.3102 24.0775 41.3635ZM16.9266 29.0587C17.6967 31.5463 18.4442 33.8454 19.8587 35.8616C19.9657 36.0141 20.0854 36.1592 20.2091 36.2984C21.5338 37.7852 23.1791 38.3192 25.0917 37.7965C27.7264 37.0768 28.8264 34.8002 28.7406 32.8626C28.6262 30.2658 26.6465 28.281 24.0489 28.2144C22.6291 28.1778 21.198 28.3309 19.7808 28.486C18.8665 28.5859 17.968 28.8436 16.9266 29.0587Z" fill="white" fill-opacity="0.88"/>
<path d="M67.6013 66.4471C67.076 66.3845 66.1363 66.3479 65.2306 66.1521C61.3988 65.3218 58.8138 61.8747 58.9023 57.7845C58.9828 54.0597 61.8456 50.6739 65.5278 50.0067C69.0657 49.3655 71.9007 50.5474 73.9802 53.4678C74.5541 54.2741 75.0296 55.1644 75.4538 56.0619C76.4673 58.2079 77.1689 60.4705 77.7801 62.759C78.0767 63.8709 77.6451 64.6886 76.5405 64.9869C73.7447 65.7413 70.9218 66.3552 67.6013 66.4471ZM74.0673 62.0812C73.7893 61.2255 73.5599 60.4525 73.2885 59.6954C72.7612 58.2246 72.1633 56.7844 71.2682 55.49C70.7655 54.7629 70.1843 54.1043 69.3663 53.7315C67.4617 52.8639 65.6356 53.031 64.0322 54.39C62.4348 55.7443 61.8769 57.5155 62.4987 59.533C63.1165 61.5358 64.507 62.7011 66.6231 62.9567C68.6687 63.2038 70.6571 62.8316 72.6441 62.4374C73.093 62.3488 73.5333 62.2163 74.0673 62.0812Z" fill="white" fill-opacity="0.88"/>
<path d="M68.1874 41.3461C62.9178 41.3148 59.3653 38.1267 58.9277 33.9859C58.4775 29.7258 61.224 25.9045 65.387 24.9923C67.0861 24.6201 68.8025 24.6754 70.4917 24.9524C72.4827 25.2786 74.4492 25.7527 76.4262 26.1629C76.4874 26.1755 76.5479 26.1902 76.6071 26.2095C77.5867 26.5311 78.0775 27.3188 77.8095 28.3109C77.078 31.0195 76.2607 33.7029 74.9193 36.1851C74.5216 36.9216 74.0634 37.638 73.5441 38.2939C71.9115 40.356 69.7415 41.3341 68.1874 41.3461ZM74.0269 29.2131C73.9118 29.1112 73.8719 29.0473 73.8194 29.0333C71.4619 28.4194 69.0752 27.9859 66.6319 28.2256C63.6739 28.5166 61.7334 31.3058 62.4044 34.2056C62.9936 36.7511 65.6151 38.4004 68.1707 37.8664C69.5374 37.5808 70.5216 36.7944 71.2863 35.6711C72.2413 34.2682 72.8584 32.7068 73.421 31.1207C73.6478 30.4842 73.832 29.8323 74.0269 29.2131Z" fill="white" fill-opacity="0.88"/>
<path d="M45.4537 62.3149C50.2924 62.3482 54.1089 66.4171 53.7697 71.2412C53.6926 72.3425 53.3441 73.3759 52.8746 74.3713C52.1504 75.9074 51.1841 77.2864 50.0835 78.5655C49.0262 79.7939 47.9322 80.9925 46.809 82.1604C45.997 83.0046 45.0042 82.996 44.1809 82.1577C42.3654 80.3106 40.6071 78.4097 39.182 76.2317C38.358 74.9719 37.6717 73.6495 37.3745 72.1527C36.5153 67.8247 39.3835 63.4655 43.7014 62.5646C44.278 62.4434 44.8692 62.3954 45.4537 62.3149ZM45.5688 78.5814C46.154 77.9209 46.7438 77.2884 47.2971 76.6245C48.3352 75.3794 49.3155 74.0937 49.9599 72.5855C50.3742 71.6161 50.5377 70.6319 50.295 69.5819C49.6919 66.9791 47.0857 65.2626 44.393 65.8705C41.8833 66.4371 40.1489 69.0179 40.7181 71.5255C40.9004 72.3285 41.2807 73.1109 41.6931 73.832C42.6414 75.4886 43.9062 76.9122 45.1944 78.3098C45.2748 78.397 45.3885 78.4523 45.5688 78.5814Z" fill="white" fill-opacity="0.88"/>
<path d="M25.093 15.1019C22.4143 15.0852 20.3382 12.9485 20.3601 10.2326C20.3807 7.6098 22.5201 5.47377 25.1349 5.46445C27.8129 5.45512 30.0334 7.69968 29.9875 10.3691C29.941 13.0457 27.797 15.1185 25.093 15.1019ZM25.1289 11.75C25.8744 11.772 26.552 11.1035 26.5647 10.3331C26.578 9.52676 25.9828 8.90353 25.1854 8.89021C24.4174 8.8769 23.7364 9.52277 23.7231 10.2772C23.7098 11.0149 24.3901 11.728 25.1289 11.75Z" fill="white" fill-opacity="0.88"/>
<path d="M20.3594 80.9092C20.3514 78.2186 22.4582 76.0779 25.1335 76.0592C27.7743 76.0406 29.9729 78.2146 29.9881 80.8586C30.0028 83.5054 27.8395 85.6927 25.1874 85.712C22.5327 85.7306 20.3667 83.5766 20.3594 80.9092ZM25.1448 79.4817C24.3648 79.4883 23.7058 80.1415 23.7171 80.8966C23.7277 81.6483 24.4073 82.3115 25.1668 82.3122C25.9389 82.3128 26.566 81.6683 26.5646 80.876C26.5627 80.0689 25.9575 79.4743 25.1448 79.4817Z" fill="white" fill-opacity="0.88"/>
<path d="M70.6352 80.866C70.6445 83.554 68.5278 85.704 65.863 85.7133C63.2216 85.7226 60.9732 83.5626 61.0164 80.9086C61.0663 77.8424 63.4317 76.0879 65.8231 76.0692C68.5038 76.0472 70.6259 78.1686 70.6352 80.866ZM65.8438 79.4737C65.0404 79.481 64.4273 80.0962 64.4313 80.8913C64.4359 81.6829 65.0677 82.3128 65.8531 82.3075C66.6132 82.3028 67.2895 81.6277 67.2862 80.8786C67.2828 80.1182 66.6145 79.467 65.8438 79.4737Z" fill="white" fill-opacity="0.88"/>
<path d="M86.1899 40.7935C88.8753 40.7909 91.006 42.9182 91 45.5956C90.994 48.261 88.8334 50.4842 86.1886 50.421C83.0784 50.3457 81.3866 47.9553 81.3693 45.5949C81.3506 42.9289 83.5099 40.7962 86.1899 40.7935ZM87.6197 45.569C87.6051 44.8152 86.9122 44.1394 86.168 44.1527C85.3959 44.1667 84.7828 44.8185 84.7934 45.6142C84.8041 46.4252 85.4179 47.0298 86.2152 47.0152C86.9886 47.0012 87.635 46.336 87.6197 45.569Z" fill="white" fill-opacity="0.88"/>
<path d="M70.6347 10.3458C70.6207 13.0498 68.5139 15.1265 65.8013 15.1099C63.1399 15.0939 60.9015 12.8693 61.0132 10.2579C61.1396 7.30285 63.3454 5.48244 65.8871 5.47045C68.5452 5.4578 70.6486 7.65841 70.6347 10.3458ZM67.2876 10.2752C67.2717 9.51811 66.5907 8.87624 65.8186 8.88956C65.0253 8.90354 64.4154 9.53876 64.4327 10.3344C64.4487 11.0975 65.139 11.7707 65.8811 11.7474C66.6286 11.7241 67.3036 11.0176 67.2876 10.2752Z" fill="white" fill-opacity="0.88"/>
<path d="M4.84803 40.7948C7.52006 40.8028 9.65875 42.9581 9.63348 45.6275C9.6122 47.8647 7.9869 50.3882 4.7822 50.4195C2.1095 50.4455 -0.0145552 48.2223 7.5126e-05 45.5629C0.0147054 42.8902 2.15406 40.7861 4.84803 40.7948ZM4.88328 44.1526C4.13181 44.1107 3.44818 44.7525 3.41892 45.5269C3.38833 46.3426 3.95957 46.9791 4.75227 47.0144C5.54031 47.049 6.19535 46.4484 6.23126 45.6574C6.26584 44.8857 5.64805 44.1952 4.88328 44.1526Z" fill="white" fill-opacity="0.88"/>
</svg>
